<svg fill="none" height="36" viewBox="0 0 500 500" width="36" xmlns="http://www.w3.org/2000/svg" xmlns:xlink="http://www.w3.org/1999/xlink"><linearGradient id="a" gradientUnits="userSpaceOnUse" x1="249" x2="249" y1="189.266" y2="429.472"><stop offset="0" stop-color="#139d84"/><stop offset="1" stop-color="#07836c"/></linearGradient><ellipse cx="250.19" cy="428.709" fill="#f2c47f" rx="177" ry="10" transform="matrix(.99970767 -.02417778 .02417778 .99970767 -10.292097 6.174362)"/><path d="m271.5 365.5-2.5-33 17-4.5c-5 16-11.5 28-14.5 37.5z" fill="#fff" stroke="#000" stroke-width="2"/><path d="m312.578 239.821-30.298-43.339c7.419-1.764 9.877 1.222 20.976-15.127l23.322 31c-1.106 8.639-5.109 17.848-14 27.466z" fill="#024e40" stroke="#030303" stroke-width="2"/><path d="m358.025 319.223c6.852-7.251 11.761-14.975 14.181-21.566 1.211-3.298 1.781-6.265 1.694-8.724-.086-2.452-.821-4.326-2.146-5.578-1.326-1.253-3.238-1.88-5.691-1.828-2.46.053-5.39.791-8.614 2.186-6.444 2.79-13.877 8.128-20.729 15.38-6.852 7.251-11.761 14.975-14.181 21.566-1.211 3.298-1.781 6.265-1.694 8.724.086 2.452.821 4.326 2.146 5.578 1.326 1.253 3.238 1.88 5.691 1.828 2.46-.053 5.39-.791 8.614-2.186 6.444-2.79 13.877-8.128 20.729-15.38z" fill="#139d84" stroke="#000" stroke-width="2"/><path d="m362.045 310.902c12.409-18.52 4.161-6.667-.1-2.185 0 0-3.219 1.625-9.452 8.439-13.713 16.609-17.116 14.65-14.538 14.317 4.959-.639 10.377-3.961 24.09-20.571z" fill="#0d7b67"/><g stroke="#000"><path d="m162.826 293.678c-7.848-7.657-16.135-13.313-23.158-16.285-3.515-1.488-6.664-2.282-9.254-2.352-2.589-.07-4.516.582-5.765 1.863-1.25 1.281-1.854 3.223-1.721 5.809.134 2.588 1.006 5.716 2.579 9.194 3.145 6.948 9.002 15.093 16.85 22.75s16.135 13.312 23.158 16.285c3.515 1.487 6.664 2.282 9.254 2.352 2.589.069 4.516-.583 5.765-1.863 1.25-1.281 1.854-3.223 1.721-5.809-.134-2.589-1.005-5.717-2.579-9.194-3.145-6.948-9.002-15.093-16.85-22.75z" fill="#139d84" stroke-width="2"/><path d="m249 190.433h.031l.032-.002c32.535-2.052 54.246 15.217 70.587 41.529 11.178 17.999 22.35 39.686 22.35 62.973 0 28.001-9.801 54.005-25.745 73.364-3.701 4.494-5.277 10.362-5.853 16.534-.577 6.162-.167 12.758.208 18.79l.002.033c.379 6.1.713 11.555.051 15.615-.33 2.019-.891 3.587-1.734 4.692-.816 1.069-1.94 1.764-3.561 1.981l-.017.002-.016.002c-11.905 1.985-34.324 2.487-47.335 2.487-.804 0-1.387-.215-1.841-.554-.468-.349-.863-.878-1.197-1.6-.682-1.478-.998-3.51-1.283-5.724-.029-.226-.058-.455-.087-.685-.243-1.931-.498-3.954-1.046-5.531-.311-.896-.748-1.745-1.409-2.377-.69-.659-1.572-1.029-2.637-1.029-.922 0-1.605.522-2.083 1.139-.469.604-.831 1.405-1.139 2.255-.404 1.117-.774 2.507-1.154 3.931-.191.718-.384 1.445-.586 2.15-.622 2.179-1.339 4.235-2.339 5.736-.979 1.469-2.144 2.289-3.699 2.289-2.157 0-4.269.042-6.546.087-8.84.175-20.178.401-46.379-1.584-.528-.04-.917-.195-1.22-.422-.309-.231-.584-.581-.814-1.092-.475-1.055-.695-2.65-.693-4.791.003-3.181.484-7.231 1.033-11.851.189-1.588.386-3.243.574-4.954.729-6.631 1.313-13.999.693-21.126-.619-7.128-2.448-14.087-6.603-19.852-13.448-18.662-21.545-42.464-21.545-67.915 0-22.876 11.999-42.004 23.338-59.455 17.012-26.181 38.921-45.045 69.662-45.045z" fill="url(#a)" stroke-width="2"/><path d="m293.723 281.467c-3.982 10.063-10.273 18.061-17.175 22.876-6.91 4.82-14.321 6.388-20.677 3.872-6.355-2.515-10.686-8.729-12.426-16.973-1.738-8.234-.852-18.371 3.131-28.434 3.982-10.062 10.273-18.061 17.175-22.876 6.91-4.82 14.321-6.388 20.676-3.872 6.356 2.515 10.687 8.73 12.427 16.973 1.738 8.234.851 18.371-3.131 28.434z" fill="#fff" stroke-width="2"/><path d="m187.518 277.303c2.049 10.627 6.749 19.652 12.64 25.662 5.897 6.017 12.889 8.931 19.601 7.636 6.712-1.294 12.119-6.598 15.356-14.377 3.233-7.769 4.24-17.895 2.191-28.522-2.049-10.626-6.749-19.651-12.64-25.662-5.897-6.016-12.889-8.93-19.601-7.636-6.711 1.295-12.119 6.599-15.355 14.377-3.234 7.77-4.241 17.896-2.192 28.522z" fill="#fff" stroke-width="2"/></g><ellipse cx="264.351" cy="282.137" fill="#161212" rx="18.3726" ry="27.9018" transform="matrix(.92983173 .36798499 -.36798499 .92983173 122.371234 -77.480135)"/><ellipse cx="18.3726" cy="27.9018" fill="#161212" rx="18.3726" ry="27.9018" transform="matrix(-.98191 .189348 .189348 .98191 231.081 250.433)"/><path d="m183 321c33.5 16 75.3 23.1 122.5-2.5-24.5 42-78.5 82.5-122.5 2.5z" fill="#044237" stroke="#000" stroke-width="2"/><path d="m300 270.932c-3.439 22.026 2.474 1.684 2.382-4.499 0 0-.04 2.381 0-6.854-1.382-18.147-11.052-23.139-9.382-21.146 3.211 3.832 8.184 10.993 7 32.499z" fill="#0d7b67"/><path d="m181.732 263.603c3.531-17.169 1.816-12.367.449-6.504 0 0-1.171 7.977-1.525 10.389-.476 13.575 6.772 20.277 5.409 18.062-2.62-4.258-3.116-3.513-4.333-21.947z" fill="#0d7b67"/><path d="m208.5 391.433c21 7 46.5 11 79-3.5" stroke="#171618" stroke-width="2"/><path d="m208.5 391.433c21 7 46.5 11 79-3.5" stroke="#171618" stroke-width="2"/><path d="m222.5 399.933c13.667 4 28 6 53.5-2.5" stroke="#171618" stroke-width="2"/><path d="m248 312.06c0-1.138-3.134-2.06-7-2.06s-7 .922-7 2.06c0 1.137 3.134.924 7 .924s7 .213 7-.924z" fill="#0c6454"/><path d="m246 307.806c0-.759-2.462-1.373-5.5-1.373s-5.5.614-5.5 1.373c0 .758 2.462.616 5.5.616s5.5.142 5.5-.616z" fill="#0c6454"/><path d="m244 303.806c0-.759-1.567-1.373-3.5-1.373s-3.5.614-3.5 1.373c0 .758 1.567.616 3.5.616s3.5.142 3.5-.616z" fill="#0c6454"/><path d="m279 213.667c0 11.266-11.484 11.333-27.5 11.333s-30.5-.067-30.5-11.333c0-11.267 12.484-22.667 28.5-22.667s29.5 11.4 29.5 22.667z" fill="#0c8d76"/><path d="m307.5 407.933c.4-6-1.167-17.5-2-22.5-.5 5.5-1.5 17.2-1.5 20 0 3.5-2 11-5.5 13s0 3.5.5 4.5 5.5-.5 7-2 1-5.5 1.5-13z" fill="#0b7663"/><path d="m297.64 194.425c3.526-3.504 4.245-.942 9.574 4.419s10.127 10.229 6.601 13.734c-3.525 3.504-4.779-4.076-10.108-9.436-5.329-5.361-9.592-5.213-6.067-8.717z" fill="#116959"/><path d="m279.5 364.5-2.5-33 16.5-6.5c-5 16-11 30-14 39.5z" fill="#fff" stroke="#000" stroke-width="2"/></svg>